<?xml version="1.0" encoding="UTF-8" standalone="no"?>
<!DOCTYPE svg PUBLIC "-//W3C//DTD SVG 1.1//EN"
 "http://www.w3.org/Graphics/SVG/1.1/DTD/svg11.dtd">
<!-- Generated by graphviz version 2.26.3 (20100126.1600)
 -->
<!-- Title: cortexai Pages: 1 -->
<svg width="1807pt" height="1400pt"
 viewBox="0.00 0.00 1807.00 1400.00" xmlns="http://www.w3.org/2000/svg" xmlns:xlink="http://www.w3.org/1999/xlink">
<g id="graph1" class="graph" transform="scale(1 1) rotate(0) translate(4 1396)">
<title>cortexai</title>
<polygon fill="white" stroke="white" points="-4,5 -4,-1396 1804,-1396 1804,5 -4,5"/>
<!-- iscoord -->
<g id="node2" class="node"><title>iscoord</title>
<polygon fill="white" stroke="black" points="848,-1392 666,-1392 666,-1356 854,-1356 854,-1386 848,-1392"/>
<polyline fill="none" stroke="black" points="848,-1392 848,-1386 "/>
<polyline fill="none" stroke="black" points="854,-1386 848,-1386 "/>
<text text-anchor="middle" x="760" y="-1369.9" font-family="Times Roman,serif" font-size="14.00">Coordinates and Velocity</text>
</g>
<!-- creflex -->
<g id="node29" class="node"><title>creflex</title>
<polygon fill="#d9d9d9" stroke="black" points="415,-1318 357,-1318 357,-1314 353,-1314 353,-1310 357,-1310 357,-1290 353,-1290 353,-1286 357,-1286 357,-1282 415,-1282 415,-1318"/>
<polyline fill="none" stroke="black" points="357,-1314 361,-1314 361,-1310 357,-1310 "/>
<polyline fill="none" stroke="black" points="357,-1290 361,-1290 361,-1286 357,-1286 "/>
<text text-anchor="middle" x="386" y="-1295.9" font-family="Times Roman,serif" font-size="14.00">Reflex</text>
</g>
<!-- iscoord&#45;&gt;creflex -->
<g id="edge7" class="edge"><title>iscoord&#45;&gt;creflex</title>
<path fill="none" stroke="black" d="M668.988,-1355.99C591.027,-1340.57 482.53,-1319.1 425.166,-1307.75"/>
<polygon fill="black" stroke="black" points="425.559,-1304.26 415.069,-1305.75 424.2,-1311.13 425.559,-1304.26"/>
</g>
<!-- cavoidedge -->
<g id="node41" class="node"><title>cavoidedge</title>
<polygon fill="#d9d9d9" stroke="black" points="539,-1138 447,-1138 447,-1134 443,-1134 443,-1130 447,-1130 447,-1110 443,-1110 443,-1106 447,-1106 447,-1102 539,-1102 539,-1138"/>
<polyline fill="none" stroke="black" points="447,-1134 451,-1134 451,-1130 447,-1130 "/>
<polyline fill="none" stroke="black" points="447,-1110 451,-1110 451,-1106 447,-1106 "/>
<text text-anchor="middle" x="493" y="-1115.9" font-family="Times Roman,serif" font-size="14.00">Avoid Edge</text>
</g>
<!-- iscoord&#45;&gt;cavoidedge -->
<g id="edge35" class="edge"><title>iscoord&#45;&gt;cavoidedge</title>
<path fill="none" stroke="black" d="M740.798,-1355.73C693.844,-1311.06 573.15,-1196.25 519.448,-1145.16"/>
<polygon fill="black" stroke="black" points="521.686,-1142.46 512.028,-1138.1 516.861,-1147.53 521.686,-1142.46"/>
</g>
<!-- cdodge -->
<g id="node44" class="node"><title>cdodge</title>
<polygon fill="#d9d9d9" stroke="black" points="306,-1138 246,-1138 246,-1134 242,-1134 242,-1130 246,-1130 246,-1110 242,-1110 242,-1106 246,-1106 246,-1102 306,-1102 306,-1138"/>
<polyline fill="none" stroke="black" points="246,-1134 250,-1134 250,-1130 246,-1130 "/>
<polyline fill="none" stroke="black" points="246,-1110 250,-1110 250,-1106 246,-1106 "/>
<text text-anchor="middle" x="276" y="-1115.9" font-family="Times Roman,serif" font-size="14.00">Dodge</text>
</g>
<!-- iscoord&#45;&gt;cdodge -->
<g id="edge47" class="edge"><title>iscoord&#45;&gt;cdodge</title>
<path fill="none" stroke="black" d="M728.163,-1355.95C708.963,-1345.02 684.036,-1330.78 662,-1318 566.527,-1262.62 551.645,-1229.95 448,-1192 403.539,-1175.72 386.153,-1193.48 343,-1174 327.622,-1167.06 312.773,-1155.73 300.978,-1145.24"/>
<polygon fill="black" stroke="black" points="303.052,-1142.39 293.332,-1138.17 298.301,-1147.53 303.052,-1142.39"/>
</g>
<!-- crunaway -->
<g id="node46" class="node"><title>crunaway</title>
<polygon fill="#d9d9d9" stroke="black" points="652,-1138 566,-1138 566,-1134 562,-1134 562,-1130 566,-1130 566,-1110 562,-1110 562,-1106 566,-1106 566,-1102 652,-1102 652,-1138"/>
<polyline fill="none" stroke="black" points="566,-1134 570,-1134 570,-1130 566,-1130 "/>
<polyline fill="none" stroke="black" points="566,-1110 570,-1110 570,-1106 566,-1106 "/>
<text text-anchor="middle" x="609" y="-1115.9" font-family="Times Roman,serif" font-size="14.00">Run Away</text>
</g>
<!-- iscoord&#45;&gt;crunaway -->
<g id="edge61" class="edge"><title>iscoord&#45;&gt;crunaway</title>
<path fill="none" stroke="black" d="M749.14,-1355.73C722.858,-1311.52 655.722,-1198.59 624.903,-1146.75"/>
<polygon fill="black" stroke="black" points="627.88,-1144.91 619.761,-1138.1 621.863,-1148.49 627.88,-1144.91"/>
</g>
<!-- cfrontal -->
<g id="node48" class="node"><title>cfrontal</title>
<polygon fill="#d9d9d9" stroke="black" points="1275,-1138 1211,-1138 1211,-1134 1207,-1134 1207,-1130 1211,-1130 1211,-1110 1207,-1110 1207,-1106 1211,-1106 1211,-1102 1275,-1102 1275,-1138"/>
<polyline fill="none" stroke="black" points="1211,-1134 1215,-1134 1215,-1130 1211,-1130 "/>
<polyline fill="none" stroke="black" points="1211,-1110 1215,-1110 1215,-1106 1211,-1106 "/>
<text text-anchor="middle" x="1243" y="-1115.9" font-family="Times Roman,serif" font-size="14.00">Frontal</text>
</g>
<!-- iscoord&#45;&gt;cfrontal -->
<g id="edge73" class="edge"><title>iscoord&#45;&gt;cfrontal</title>
<path fill="none" stroke="black" d="M839.826,-1355.97C922.034,-1334.75 1051.3,-1293.82 1147,-1228 1179.22,-1205.84 1207.79,-1170.63 1225.21,-1146.48"/>
<polygon fill="black" stroke="black" points="1228.2,-1148.31 1231.11,-1138.12 1222.49,-1144.27 1228.2,-1148.31"/>
</g>
<!-- cnavigate -->
<g id="node85" class="node"><title>cnavigate</title>
<polygon fill="#d9d9d9" stroke="black" points="800,-826 710,-826 710,-822 706,-822 706,-818 710,-818 710,-798 706,-798 706,-794 710,-794 710,-790 800,-790 800,-826"/>
<polyline fill="none" stroke="black" points="710,-822 714,-822 714,-818 710,-818 "/>
<polyline fill="none" stroke="black" points="710,-798 714,-798 714,-794 710,-794 "/>
<text text-anchor="middle" x="755" y="-803.9" font-family="Times Roman,serif" font-size="14.00">Navigation</text>
</g>
<!-- iscoord&#45;&gt;cnavigate -->
<g id="edge99" class="edge"><title>iscoord&#45;&gt;cnavigate</title>
<path fill="none" stroke="black" d="M756.455,-1355.65C751.275,-1328.06 741.74,-1274.2 737,-1228 730.415,-1163.82 730,-1147.52 730,-1083 730,-1083 730,-1083 730,-898 730,-876.581 736.655,-853.307 743.097,-835.794"/>
<polygon fill="black" stroke="black" points="746.463,-836.794 746.814,-826.205 739.936,-834.264 746.463,-836.794"/>
</g>
<!-- caiming -->
<g id="node113" class="node"><title>caiming</title>
<polygon fill="lightblue" stroke="black" points="1160,-348 1096,-348 1096,-344 1092,-344 1092,-340 1096,-340 1096,-320 1092,-320 1092,-316 1096,-316 1096,-312 1160,-312 1160,-348"/>
<polyline fill="none" stroke="black" points="1096,-344 1100,-344 1100,-340 1096,-340 "/>
<polyline fill="none" stroke="black" points="1096,-320 1100,-320 1100,-316 1096,-316 "/>
<text text-anchor="middle" x="1128" y="-325.9" font-family="Times Roman,serif" font-size="14.00">Aiming</text>
</g>
<!-- iscoord&#45;&gt;caiming -->
<g id="edge145" class="edge"><title>iscoord&#45;&gt;caiming</title>
<path fill="none" stroke="black" d="M854.325,-1363.73C1032.79,-1343.06 1412.18,-1292.81 1526,-1228 1659.22,-1152.15 1708,-1088.3 1708,-935 1708,-935 1708,-935 1708,-623 1708,-381.903 1303.79,-339.152 1170.25,-331.607"/>
<polygon fill="black" stroke="black" points="1170.18,-328.099 1160.01,-331.069 1169.81,-335.089 1170.18,-328.099"/>
</g>
<!-- coppweap -->
<g id="node122" class="node"><title>coppweap</title>
<polygon fill="lightblue" stroke="black" points="1551,-274 1381,-274 1381,-270 1377,-270 1377,-266 1381,-266 1381,-246 1377,-246 1377,-242 1381,-242 1381,-238 1551,-238 1551,-274"/>
<polyline fill="none" stroke="black" points="1381,-270 1385,-270 1385,-266 1381,-266 "/>
<polyline fill="none" stroke="black" points="1381,-246 1385,-246 1385,-242 1381,-242 "/>
<text text-anchor="middle" x="1466" y="-251.9" font-family="Times Roman,serif" font-size="14.00">Opportunistic Weapon</text>
</g>
<!-- iscoord&#45;&gt;coppweap -->
<g id="edge163" class="edge"><title>iscoord&#45;&gt;coppweap</title>
<path fill="none" stroke="black" d="M854.083,-1371.45C1090.5,-1364.64 1693.08,-1344.75 1727,-1318 1749.96,-1299.89 1746,-1284.25 1746,-1255 1746,-1255 1746,-1255 1746,-549 1746,-416.211 1593.82,-319.969 1513.85,-278.557"/>
<polygon fill="black" stroke="black" points="1515.43,-275.437 1504.93,-274.014 1512.25,-281.674 1515.43,-275.437"/>
</g>
<!-- cweaplvl -->
<g id="node136" class="node"><title>cweaplvl</title>
<polygon fill="lightblue" stroke="black" points="1623,-126 1509,-126 1509,-122 1505,-122 1505,-118 1509,-118 1509,-98 1505,-98 1505,-94 1509,-94 1509,-90 1623,-90 1623,-126"/>
<polyline fill="none" stroke="black" points="1509,-122 1513,-122 1513,-118 1509,-118 "/>
<polyline fill="none" stroke="black" points="1509,-98 1513,-98 1513,-94 1509,-94 "/>
<text text-anchor="middle" x="1566" y="-103.9" font-family="Times Roman,serif" font-size="14.00">Weapon Level</text>
</g>
<!-- iscoord&#45;&gt;cweaplvl -->
<g id="edge185" class="edge"><title>iscoord&#45;&gt;cweaplvl</title>
<path fill="none" stroke="black" d="M854.127,-1371.32C1044.92,-1365.69 1471.45,-1351.96 1617,-1338 1695.36,-1330.48 1790,-1378.72 1790,-1300 1790,-1300 1790,-1300 1790,-182 1790,-148.595 1699.05,-127.715 1633.05,-116.962"/>
<polygon fill="black" stroke="black" points="1633.53,-113.494 1623.1,-115.386 1632.43,-120.407 1633.53,-113.494"/>
</g>
<!-- istheta -->
<g id="node3" class="node"><title>istheta</title>
<polygon fill="white" stroke="black" points="900,-1228 746,-1228 746,-1192 906,-1192 906,-1222 900,-1228"/>
<polyline fill="none" stroke="black" points="900,-1228 900,-1222 "/>
<polyline fill="none" stroke="black" points="906,-1222 900,-1222 "/>
<text text-anchor="middle" x="826" y="-1205.9" font-family="Times Roman,serif" font-size="14.00">Rotation Information</text>
</g>
<!-- istheta&#45;&gt;cavoidedge -->
<g id="edge37" class="edge"><title>istheta&#45;&gt;cavoidedge</title>
<path fill="none" stroke="black" d="M745.624,-1194.73C717.439,-1188.89 685.67,-1181.75 657,-1174 620.548,-1164.15 580.26,-1150.92 548.738,-1140.02"/>
<polygon fill="black" stroke="black" points="549.845,-1136.7 539.251,-1136.72 547.545,-1143.31 549.845,-1136.7"/>
</g>
<!-- istheta&#45;&gt;cdodge -->
<g id="edge49" class="edge"><title>istheta&#45;&gt;cdodge</title>
<path fill="none" stroke="black" d="M745.724,-1203.92C691.118,-1198.68 617.526,-1189.45 554,-1174 531.051,-1168.42 526.878,-1161.87 504,-1156 439.358,-1139.42 362.337,-1129.18 316.395,-1124.04"/>
<polygon fill="black" stroke="black" points="316.566,-1120.54 306.246,-1122.94 315.807,-1127.5 316.566,-1120.54"/>
</g>
<!-- istheta&#45;&gt;crunaway -->
<g id="edge63" class="edge"><title>istheta&#45;&gt;crunaway</title>
<path fill="none" stroke="black" d="M782.348,-1191.9C747.583,-1177.48 698.787,-1157.24 661.82,-1141.91"/>
<polygon fill="black" stroke="black" points="662.79,-1138.52 652.212,-1137.92 660.108,-1144.99 662.79,-1138.52"/>
</g>
<!-- istheta&#45;&gt;cnavigate -->
<g id="edge101" class="edge"><title>istheta&#45;&gt;cnavigate</title>
<path fill="none" stroke="black" d="M798.241,-1191.78C792.15,-1186.66 786.257,-1180.65 782,-1174 768.634,-1153.12 768,-1144.79 768,-1120 768,-1120 768,-1120 768,-898 768,-877.213 764.561,-854 761.22,-836.355"/>
<polygon fill="black" stroke="black" points="764.575,-835.282 759.185,-826.16 757.711,-836.652 764.575,-835.282"/>
</g>
<!-- istheta&#45;&gt;caiming -->
<g id="edge147" class="edge"><title>istheta&#45;&gt;caiming</title>
<path fill="none" stroke="black" d="M906.01,-1193.8C924.79,-1188.35 941.078,-1181.68 947,-1174 1011.73,-1090.05 952,-803.006 952,-697 952,-697 952,-697 952,-404 952,-384.025 959.743,-377.607 976,-366 993.424,-353.56 1047.18,-342.771 1085.81,-336.328"/>
<polygon fill="black" stroke="black" points="1086.47,-339.768 1095.77,-334.707 1085.34,-332.859 1086.47,-339.768"/>
</g>
<!-- istheta&#45;&gt;coppweap -->
<g id="edge165" class="edge"><title>istheta&#45;&gt;coppweap</title>
<path fill="none" stroke="black" d="M890.508,-1191.97C905.09,-1186.56 917.59,-1180.36 922,-1174 1002.2,-1058.27 880.772,-1002.13 867,-862 863.044,-821.747 866,-811.447 866,-771 866,-771 866,-771 866,-330 866,-304.881 1201.62,-275.942 1370.83,-262.948"/>
<polygon fill="black" stroke="black" points="1371.29,-266.424 1380.99,-262.172 1370.75,-259.444 1371.29,-266.424"/>
</g>
<!-- istheta&#45;&gt;cweaplvl -->
<g id="edge187" class="edge"><title>istheta&#45;&gt;cweaplvl</title>
<path fill="none" stroke="black" d="M878.798,-1191.89C886.039,-1187.18 892.516,-1181.3 897,-1174 901.187,-1167.18 897.782,-1163.96 897,-1156 881.593,-999.077 828,-965.678 828,-808 828,-808 828,-808 828,-367 828,-157.044 1082.08,-246.563 1245,-200 1332.88,-174.884 1434.26,-145.811 1499.19,-127.18"/>
<polygon fill="black" stroke="black" points="1500.25,-130.518 1508.89,-124.395 1498.31,-123.79 1500.25,-130.518"/>
</g>
<!-- ifields -->
<g id="node4" class="node"><title>ifields</title>
<polygon fill="white" stroke="black" points="326,-1392 250,-1392 250,-1356 332,-1356 332,-1386 326,-1392"/>
<polyline fill="none" stroke="black" points="326,-1392 326,-1386 "/>
<polyline fill="none" stroke="black" points="332,-1386 326,-1386 "/>
<text text-anchor="middle" x="291" y="-1369.9" font-family="Times Roman,serif" font-size="14.00">Field Size</text>
</g>
<!-- ifields&#45;&gt;creflex -->
<g id="edge9" class="edge"><title>ifields&#45;&gt;creflex</title>
<path fill="none" stroke="black" d="M314.483,-1355.71C326.678,-1346.21 341.738,-1334.48 354.889,-1324.23"/>
<polygon fill="black" stroke="black" points="357.049,-1326.99 362.787,-1318.08 352.747,-1321.47 357.049,-1326.99"/>
</g>
<!-- ifields&#45;&gt;cavoidedge -->
<g id="edge39" class="edge"><title>ifields&#45;&gt;cavoidedge</title>
<path fill="none" stroke="black" d="M282.65,-1355.87C268.036,-1321.22 242.25,-1244.38 274,-1192 291.185,-1163.65 377.841,-1141.84 436.858,-1129.98"/>
<polygon fill="black" stroke="black" points="437.668,-1133.39 446.804,-1128.02 436.316,-1126.52 437.668,-1133.39"/>
</g>
<!-- ipain -->
<g id="node5" class="node"><title>ipain</title>
<polygon fill="white" stroke="black" points="226,-1392 126,-1392 126,-1356 232,-1356 232,-1386 226,-1392"/>
<polyline fill="none" stroke="black" points="226,-1392 226,-1386 "/>
<polyline fill="none" stroke="black" points="232,-1386 226,-1386 "/>
<text text-anchor="middle" x="179" y="-1369.9" font-family="Times Roman,serif" font-size="14.00">Pain Emotion</text>
</g>
<!-- ipain&#45;&gt;creflex -->
<g id="edge11" class="edge"><title>ipain&#45;&gt;creflex</title>
<path fill="none" stroke="black" d="M229.373,-1355.99C265.597,-1343.04 313.732,-1325.84 347.034,-1313.93"/>
<polygon fill="black" stroke="black" points="348.626,-1317.08 356.864,-1310.42 346.269,-1310.49 348.626,-1317.08"/>
</g>
<!-- ipain&#45;&gt;cdodge -->
<g id="edge57" class="edge"><title>ipain&#45;&gt;cdodge</title>
<path fill="none" stroke="black" d="M159.721,-1355.79C155.356,-1350.51 151.326,-1344.43 149,-1338 121.422,-1261.83 109.082,-1219.8 159,-1156 168.677,-1143.63 206.176,-1133.55 236.148,-1127.23"/>
<polygon fill="black" stroke="black" points="236.869,-1130.65 245.972,-1125.23 235.476,-1123.79 236.869,-1130.65"/>
</g>
<!-- ifear -->
<g id="node6" class="node"><title>ifear</title>
<polygon fill="white" stroke="black" points="102,-1392 4.26326e-14,-1392 0,-1356 108,-1356 108,-1386 102,-1392"/>
<polyline fill="none" stroke="black" points="102,-1392 102,-1386 "/>
<polyline fill="none" stroke="black" points="108,-1386 102,-1386 "/>
<text text-anchor="middle" x="54" y="-1369.9" font-family="Times Roman,serif" font-size="14.00">Fear Emotion</text>
</g>
<!-- ifear&#45;&gt;creflex -->
<g id="edge13" class="edge"><title>ifear&#45;&gt;creflex</title>
<path fill="none" stroke="black" d="M108.229,-1358.23C111.19,-1357.46 114.128,-1356.71 117,-1356 198.196,-1335.98 294.337,-1317.12 346.875,-1307.22"/>
<polygon fill="black" stroke="black" points="347.6,-1310.64 356.784,-1305.36 346.31,-1303.76 347.6,-1310.64"/>
</g>
<!-- ifear&#45;&gt;cdodge -->
<g id="edge55" class="edge"><title>ifear&#45;&gt;cdodge</title>
<path fill="none" stroke="black" d="M55.458,-1355.69C59.9281,-1312.91 77.4386,-1206.21 143,-1156 157.544,-1144.86 202.289,-1134.17 235.893,-1127.37"/>
<polygon fill="black" stroke="black" points="236.787,-1130.76 245.919,-1125.39 235.43,-1123.89 236.787,-1130.76"/>
</g>
<!-- inervous -->
<g id="node7" class="node"><title>inervous</title>
<polygon fill="white" stroke="black" points="642,-1392 514,-1392 514,-1356 648,-1356 648,-1386 642,-1392"/>
<polyline fill="none" stroke="black" points="642,-1392 642,-1386 "/>
<polyline fill="none" stroke="black" points="648,-1386 642,-1386 "/>
<text text-anchor="middle" x="581" y="-1369.9" font-family="Times Roman,serif" font-size="14.00">Nervous Emotion</text>
</g>
<!-- inervous&#45;&gt;creflex -->
<g id="edge15" class="edge"><title>inervous&#45;&gt;creflex</title>
<path fill="none" stroke="black" d="M533.298,-1355.9C499.926,-1343.23 455.916,-1326.53 424.718,-1314.69"/>
<polygon fill="black" stroke="black" points="425.66,-1311.31 415.068,-1311.03 423.176,-1317.85 425.66,-1311.31"/>
</g>
<!-- inervous&#45;&gt;crunaway -->
<g id="edge69" class="edge"><title>inervous&#45;&gt;crunaway</title>
<path fill="none" stroke="black" d="M583.014,-1355.73C587.847,-1311.89 600.131,-1200.46 605.908,-1148.05"/>
<polygon fill="black" stroke="black" points="609.388,-1148.42 607.005,-1138.1 602.43,-1147.66 609.388,-1148.42"/>
</g>
<!-- iengine -->
<g id="node8" class="node"><title>iengine</title>
<polygon fill="white" stroke="black" points="490,-1392 350,-1392 350,-1356 496,-1356 496,-1386 490,-1392"/>
<polyline fill="none" stroke="black" points="490,-1392 490,-1386 "/>
<polyline fill="none" stroke="black" points="496,-1386 490,-1386 "/>
<text text-anchor="middle" x="423" y="-1369.9" font-family="Times Roman,serif" font-size="14.00">Engine Capabilities</text>
</g>
<!-- iengine&#45;&gt;creflex -->
<g id="edge17" class="edge"><title>iengine&#45;&gt;creflex</title>
<path fill="none" stroke="black" d="M413.854,-1355.71C409.553,-1347.11 404.336,-1336.67 399.585,-1327.17"/>
<polygon fill="black" stroke="black" points="402.644,-1325.46 395.041,-1318.08 396.383,-1328.59 402.644,-1325.46"/>
</g>
<!-- iengine&#45;&gt;cavoidedge -->
<g id="edge41" class="edge"><title>iengine&#45;&gt;cavoidedge</title>
<path fill="none" stroke="black" d="M380.597,-1355.97C334.564,-1333.66 264.007,-1290.79 237,-1228 230.678,-1213.3 233.862,-1207.69 237,-1192 240.399,-1175 238.33,-1166.66 252,-1156 266.331,-1144.83 369.975,-1132.44 436.597,-1125.5"/>
<polygon fill="black" stroke="black" points="437.363,-1128.93 446.952,-1124.43 436.646,-1121.97 437.363,-1128.93"/>
</g>
<!-- iengine&#45;&gt;cdodge -->
<g id="edge51" class="edge"><title>iengine&#45;&gt;cdodge</title>
<path fill="none" stroke="black" d="M358.112,-1355.87C322.422,-1344.86 282.671,-1330.56 269,-1318 225.829,-1278.34 224.38,-1250.35 230,-1192 231.563,-1175.78 229.061,-1170.24 237,-1156 239.07,-1152.29 241.66,-1148.74 244.516,-1145.43"/>
<polygon fill="black" stroke="black" points="247.123,-1147.77 251.541,-1138.14 242.082,-1142.91 247.123,-1147.77"/>
</g>
<!-- iengine&#45;&gt;crunaway -->
<g id="edge65" class="edge"><title>iengine&#45;&gt;crunaway</title>
<path fill="none" stroke="black" d="M436.377,-1355.73C468.818,-1311.43 551.79,-1198.12 589.646,-1146.43"/>
<polygon fill="black" stroke="black" points="592.66,-1148.24 595.745,-1138.1 587.013,-1144.1 592.66,-1148.24"/>
</g>
<!-- iengine&#45;&gt;cnavigate -->
<g id="edge103" class="edge"><title>iengine&#45;&gt;cnavigate</title>
<path fill="none" stroke="black" d="M460.121,-1355.91C533.915,-1317.04 692,-1218.02 692,-1083 692,-1083 692,-1083 692,-898 692,-872.86 708.702,-849.748 724.907,-833.241"/>
<polygon fill="black" stroke="black" points="727.498,-835.605 732.256,-826.138 722.633,-830.572 727.498,-835.605"/>
</g>
<!-- iengine&#45;&gt;caiming -->
<g id="edge151" class="edge"><title>iengine&#45;&gt;caiming</title>
<path fill="none" stroke="black" d="M496.278,-1357.89C668.963,-1319.92 1087,-1228 1087,-1228 1097.03,-1215.53 1088.14,-1207.96 1087,-1192 1080.54,-1101.53 1066.33,-1080.32 1058,-990 1039.21,-786.245 1045.12,-734.527 1039,-530 1037.09,-466.027 1013.51,-445.13 1038,-386 1046.53,-365.398 1067.15,-351.753 1086.5,-343.095"/>
<polygon fill="black" stroke="black" points="1087.94,-346.289 1095.84,-339.236 1085.26,-339.82 1087.94,-346.289"/>
</g>
<!-- ipower -->
<g id="node9" class="node"><title>ipower</title>
<polygon fill="white" stroke="black" points="1072,-1228 936,-1228 936,-1192 1078,-1192 1078,-1222 1072,-1228"/>
<polyline fill="none" stroke="black" points="1072,-1228 1072,-1222 "/>
<polyline fill="none" stroke="black" points="1078,-1222 1072,-1222 "/>
<text text-anchor="middle" x="1007" y="-1205.9" font-family="Times Roman,serif" font-size="14.00">Power Capabilities</text>
</g>
<!-- ipower&#45;&gt;cavoidedge -->
<g id="edge43" class="edge"><title>ipower&#45;&gt;cavoidedge</title>
<path fill="none" stroke="black" d="M935.795,-1195.37C928.784,-1194.14 921.763,-1192.99 915,-1192 833.698,-1180.1 812.236,-1186.34 731,-1174 721.241,-1172.52 566.591,-1140.34 557,-1138 554.358,-1137.36 551.66,-1136.68 548.938,-1135.98"/>
<polygon fill="black" stroke="black" points="549.604,-1132.53 539.042,-1133.37 547.818,-1139.3 549.604,-1132.53"/>
</g>
<!-- ipower&#45;&gt;cdodge -->
<g id="edge53" class="edge"><title>ipower&#45;&gt;cdodge</title>
<path fill="none" stroke="black" d="M935.827,-1195.14C928.809,-1193.96 921.779,-1192.88 915,-1192 793.097,-1176.17 760.965,-1189.35 639,-1174 595.93,-1168.58 585.858,-1162.9 543,-1156 462.86,-1143.09 368.673,-1131.14 316.313,-1124.78"/>
<polygon fill="black" stroke="black" points="316.453,-1121.27 306.105,-1123.55 315.613,-1128.22 316.453,-1121.27"/>
</g>
<!-- ipower&#45;&gt;crunaway -->
<g id="edge67" class="edge"><title>ipower&#45;&gt;crunaway</title>
<path fill="none" stroke="black" d="M935.717,-1195.85C928.721,-1194.52 921.726,-1193.22 915,-1192 867.117,-1183.33 854.534,-1184.42 807,-1174 757.428,-1163.14 701.726,-1147.65 662.061,-1136.04"/>
<polygon fill="black" stroke="black" points="662.917,-1132.64 652.336,-1133.18 660.941,-1139.36 662.917,-1132.64"/>
</g>
<!-- ipower&#45;&gt;cnavigate -->
<g id="edge105" class="edge"><title>ipower&#45;&gt;cnavigate</title>
<path fill="none" stroke="black" d="M996.139,-1191.91C989.769,-1181.38 981.519,-1167.88 974,-1156 911.524,-1057.24 891.192,-1035.56 830,-936 805.291,-895.798 801.083,-884.58 777,-844 775.28,-841.102 773.469,-838.084 771.653,-835.081"/>
<polygon fill="black" stroke="black" points="774.472,-832.982 766.284,-826.259 768.493,-836.621 774.472,-832.982"/>
</g>
<!-- cstratweap -->
<g id="node106" class="node"><title>cstratweap</title>
<polygon fill="lightblue" stroke="black" points="1198,-422 1058,-422 1058,-418 1054,-418 1054,-414 1058,-414 1058,-394 1054,-394 1054,-390 1058,-390 1058,-386 1198,-386 1198,-422"/>
<polyline fill="none" stroke="black" points="1058,-418 1062,-418 1062,-414 1058,-414 "/>
<polyline fill="none" stroke="black" points="1058,-394 1062,-394 1062,-390 1058,-390 "/>
<text text-anchor="middle" x="1128" y="-399.9" font-family="Times Roman,serif" font-size="14.00">Strategic Weapon</text>
</g>
<!-- ipower&#45;&gt;cstratweap -->
<g id="edge134" class="edge"><title>ipower&#45;&gt;cstratweap</title>
<path fill="none" stroke="black" d="M1005.33,-1191.73C1002.25,-1156.44 996,-1076.45 996,-1009 996,-1009 996,-1009 996,-898 996,-775.043 981.792,-740.388 1015,-622 1035.77,-547.971 1083.36,-470.046 1109.67,-430.46"/>
<polygon fill="black" stroke="black" points="1112.58,-432.407 1115.26,-422.155 1106.77,-428.501 1112.58,-432.407"/>
</g>
<!-- ipower&#45;&gt;caiming -->
<g id="edge149" class="edge"><title>ipower&#45;&gt;caiming</title>
<path fill="none" stroke="black" d="M1017.16,-1191.8C1035.44,-1157.27 1072,-1079.42 1072,-1009 1072,-1009 1072,-1009 1072,-853 1072,-801.048 1025.14,-432.151 1049,-386 1057.18,-370.169 1072.13,-357.848 1086.84,-348.843"/>
<polygon fill="black" stroke="black" points="1088.96,-351.663 1095.91,-343.663 1085.49,-345.585 1088.96,-351.663"/>
</g>
<!-- ipower&#45;&gt;coppweap -->
<g id="edge167" class="edge"><title>ipower&#45;&gt;coppweap</title>
<path fill="none" stroke="black" d="M1027.29,-1191.98C1056.4,-1167.23 1112.75,-1123.36 1169,-1102 1283.94,-1058.36 1331.1,-1114.92 1443,-1064 1557.59,-1011.85 1632,-978.898 1632,-853 1632,-853 1632,-853 1632,-549 1632,-499.97 1634.89,-484.815 1615,-440 1586.17,-375.032 1528.3,-313.879 1493.78,-281.03"/>
<polygon fill="black" stroke="black" points="1496.06,-278.367 1486.37,-274.074 1491.27,-283.47 1496.06,-278.367"/>
</g>
<!-- ipower&#45;&gt;cweaplvl -->
<g id="edge189" class="edge"><title>ipower&#45;&gt;cweaplvl</title>
<path fill="none" stroke="black" d="M1045.34,-1191.91C1074.07,-1178.01 1114.09,-1157.87 1148,-1138 1172.89,-1123.42 1174.8,-1111.61 1202,-1102 1284.48,-1072.84 1311.48,-1096.94 1398,-1084 1441.1,-1077.55 1453.8,-1080.84 1494,-1064 1606.64,-1016.82 1670,-975.119 1670,-853 1670,-853 1670,-853 1670,-623 1670,-507.072 1720,-482.928 1720,-367 1720,-367 1720,-367 1720,-182 1720,-161.361 1674.49,-141.294 1632.96,-127.275"/>
<polygon fill="black" stroke="black" points="1633.94,-123.914 1623.34,-124.112 1631.75,-130.563 1633.94,-123.914"/>
</g>
<!-- itel -->
<g id="node10" class="node"><title>itel</title>
<polygon fill="white" stroke="black" points="1278,-1228 1202,-1228 1202,-1192 1284,-1192 1284,-1222 1278,-1228"/>
<polyline fill="none" stroke="black" points="1278,-1228 1278,-1222 "/>
<polyline fill="none" stroke="black" points="1284,-1222 1278,-1222 "/>
<text text-anchor="middle" x="1243" y="-1205.9" font-family="Times Roman,serif" font-size="14.00">Telepathy</text>
</g>
<!-- itel&#45;&gt;cfrontal -->
<g id="edge75" class="edge"><title>itel&#45;&gt;cfrontal</title>
<path fill="none" stroke="black" d="M1243,-1191.79C1243,-1179.34 1243,-1162.61 1243,-1148.42"/>
<polygon fill="black" stroke="black" points="1246.5,-1148.19 1243,-1138.19 1239.5,-1148.19 1246.5,-1148.19"/>
</g>
<!-- diocoord -->
<g id="node12" class="node"><title>diocoord</title>
<polygon fill="#7f7f7f" stroke="black" points="1598,-916 1472,-916 1472,-880 1604,-880 1604,-910 1598,-916"/>
<polyline fill="none" stroke="black" points="1598,-916 1598,-910 "/>
<polyline fill="none" stroke="black" points="1604,-910 1598,-910 "/>
<text text-anchor="middle" x="1538" y="-893.9" font-family="Times Roman,serif" font-size="14.00">Objective Coords</text>
</g>
<!-- diocoord&#45;&gt;cnavigate -->
<g id="edge107" class="edge"><title>diocoord&#45;&gt;cnavigate</title>
<path fill="none" stroke="black" d="M1471.86,-881.52C1468.87,-880.967 1465.91,-880.456 1463,-880 1358.2,-863.569 1330.6,-872.056 1225,-862 1074.78,-847.695 898.099,-826.109 810.312,-815.061"/>
<polygon fill="black" stroke="black" points="810.669,-811.579 800.31,-813.8 809.793,-818.524 810.669,-811.579"/>
</g>
<!-- diocoord&#45;&gt;caiming -->
<g id="edge155" class="edge"><title>diocoord&#45;&gt;caiming</title>
<path fill="none" stroke="black" d="M1471.78,-881.942C1468.82,-881.275 1465.88,-880.625 1463,-880 1340,-853.307 1270.18,-918.665 1185,-826 1107.07,-741.215 1092.12,-660.295 1161,-568 1196.49,-520.44 1253.51,-577.56 1289,-530 1298.57,-517.177 1297.08,-507.811 1289,-494 1280.76,-479.914 1268.51,-487.569 1257,-476 1224.73,-443.558 1237.54,-420.079 1207,-386 1196.05,-373.778 1181.96,-362.734 1168.72,-353.747"/>
<polygon fill="black" stroke="black" points="1170.47,-350.707 1160.19,-348.147 1166.63,-356.559 1170.47,-350.707"/>
</g>
<!-- diocoord&#45;&gt;coppweap -->
<g id="edge169" class="edge"><title>diocoord&#45;&gt;coppweap</title>
<path fill="none" stroke="black" d="M1543.79,-879.94C1549.06,-861.918 1556,-833.336 1556,-808 1556,-808 1556,-808 1556,-623 1556,-493.078 1502.14,-344.536 1477.75,-283.937"/>
<polygon fill="black" stroke="black" points="1480.85,-282.261 1473.83,-274.323 1474.36,-284.904 1480.85,-282.261"/>
</g>
<!-- diocoord&#45;&gt;cweaplvl -->
<g id="edge191" class="edge"><title>diocoord&#45;&gt;cweaplvl</title>
<path fill="none" stroke="black" d="M1557.9,-879.69C1574,-862.804 1594,-836.156 1594,-808 1594,-808 1594,-808 1594,-512 1594,-410.841 1656,-394.159 1656,-293 1656,-293 1656,-293 1656,-182 1656,-159.81 1639.47,-143.049 1620.59,-131.139"/>
<polygon fill="black" stroke="black" points="1622.19,-128.024 1611.79,-126.006 1618.66,-134.07 1622.19,-128.024"/>
</g>
<!-- diecoord -->
<g id="node13" class="node"><title>diecoord</title>
<polygon fill="#7f7f7f" stroke="black" points="1511,-1228 1381,-1228 1381,-1192 1517,-1192 1517,-1222 1511,-1228"/>
<polyline fill="none" stroke="black" points="1511,-1228 1511,-1222 "/>
<polyline fill="none" stroke="black" points="1517,-1222 1511,-1222 "/>
<text text-anchor="middle" x="1449" y="-1205.9" font-family="Times Roman,serif" font-size="14.00">Examined Coords</text>
</g>
<!-- diecoord&#45;&gt;cfrontal -->
<g id="edge83" class="edge"><title>diecoord&#45;&gt;cfrontal</title>
<path fill="none" stroke="black" d="M1407.31,-1191.79C1371.48,-1176.13 1320.09,-1153.68 1284.36,-1138.07"/>
<polygon fill="black" stroke="black" points="1285.74,-1134.85 1275.17,-1134.06 1282.94,-1141.27 1285.74,-1134.85"/>
</g>
<!-- diccoord -->
<g id="node14" class="node"><title>diccoord</title>
<polygon fill="#7f7f7f" stroke="black" points="1470,-530 1382,-530 1382,-494 1476,-494 1476,-524 1470,-530"/>
<polyline fill="none" stroke="black" points="1470,-530 1470,-524 "/>
<polyline fill="none" stroke="black" points="1476,-524 1470,-524 "/>
<text text-anchor="middle" x="1429" y="-507.9" font-family="Times Roman,serif" font-size="14.00">Cell Coords</text>
</g>
<!-- diccoord&#45;&gt;cstratweap -->
<g id="edge136" class="edge"><title>diccoord&#45;&gt;cstratweap</title>
<path fill="none" stroke="black" d="M1381.75,-505.082C1348.47,-499.38 1303.2,-489.943 1265,-476 1229.85,-463.17 1192.4,-442.993 1165.56,-427.259"/>
<polygon fill="black" stroke="black" points="1167.26,-424.202 1156.88,-422.11 1163.69,-430.222 1167.26,-424.202"/>
</g>
<!-- diccoord&#45;&gt;caiming -->
<g id="edge153" class="edge"><title>diccoord&#45;&gt;caiming</title>
<path fill="none" stroke="black" d="M1429.98,-493.762C1429.88,-477.895 1427.27,-455.132 1415,-440 1353.71,-364.426 1234.12,-340.704 1170.38,-333.309"/>
<polygon fill="black" stroke="black" points="1170.59,-329.812 1160.27,-332.22 1169.84,-336.772 1170.59,-329.812"/>
</g>
<!-- diccoord&#45;&gt;coppweap -->
<g id="edge171" class="edge"><title>diccoord&#45;&gt;coppweap</title>
<path fill="none" stroke="black" d="M1432.14,-493.7C1433.09,-488.031 1434.11,-481.762 1435,-476 1445.57,-407.261 1456.63,-326.217 1462.24,-284.299"/>
<polygon fill="black" stroke="black" points="1465.73,-284.652 1463.58,-274.276 1458.79,-283.725 1465.73,-284.652"/>
</g>
<!-- diccoord&#45;&gt;cweaplvl -->
<g id="edge193" class="edge"><title>diccoord&#45;&gt;cweaplvl</title>
<path fill="none" stroke="black" d="M1443,-493.9C1471.51,-455.796 1535.68,-363.433 1560,-274 1572.8,-226.918 1571.3,-169.563 1568.81,-136.078"/>
<polygon fill="black" stroke="black" points="1572.3,-135.766 1567.99,-126.088 1565.32,-136.342 1572.3,-135.766"/>
</g>
<!-- robjective -->
<g id="node16" class="node"><title>robjective</title>
<polygon fill="blue" stroke="black" points="1416,-990 1413,-994 1392,-994 1389,-990 1336,-990 1336,-954 1416,-954 1416,-990"/>
<text text-anchor="middle" x="1376" y="-967.9" font-family="Times Roman,serif" font-size="14.00" fill="white">Objective</text>
</g>
<!-- robjective&#45;&gt;diocoord -->
<g id="edge81" class="edge"><title>robjective&#45;&gt;diocoord</title>
<path fill="none" stroke="black" d="M1415.63,-953.898C1437.87,-943.736 1465.81,-930.976 1489.37,-920.213"/>
<polygon fill="black" stroke="black" points="1490.86,-923.382 1498.5,-916.044 1487.95,-917.015 1490.86,-923.382"/>
</g>
<!-- xcells -->
<g id="node21" class="node"><title>xcells</title>
<polygon fill="red" stroke="black" points="1454,-916 1352,-916 1348,-912 1348,-880 1450,-880 1454,-884 1454,-916"/>
<polyline fill="none" stroke="black" points="1450,-912 1348,-912 "/>
<polyline fill="none" stroke="black" points="1450,-912 1450,-880 "/>
<polyline fill="none" stroke="black" points="1450,-912 1454,-916 "/>
<text text-anchor="middle" x="1401" y="-893.9" font-family="Times Roman,serif" font-size="14.00" fill="white">Target&#39;s Cells</text>
</g>
<!-- robjective&#45;&gt;xcells -->
<g id="edge111" class="edge"><title>robjective&#45;&gt;xcells</title>
<path fill="none" stroke="red" d="M1382.18,-953.708C1385.03,-945.284 1388.46,-935.105 1391.62,-925.765"/>
<polygon fill="red" stroke="red" points="1395.01,-926.676 1394.89,-916.082 1388.37,-924.435 1395.01,-926.676"/>
</g>
<!-- pfrontal -->
<g id="node79" class="node"><title>pfrontal</title>
<polygon fill="#d9d9d9" stroke="black" points="1215,-916 1100.02,-898 1215,-880 1329.98,-898 1215,-916"/>
<polyline fill="none" stroke="black" points="1111.88,-899.856 1111.88,-896.144 "/>
<polyline fill="none" stroke="black" points="1203.14,-881.856 1226.86,-881.856 "/>
<polyline fill="none" stroke="black" points="1318.12,-896.144 1318.12,-899.856 "/>
<polyline fill="none" stroke="black" points="1226.86,-914.144 1203.14,-914.144 "/>
<text text-anchor="middle" x="1215" y="-893.9" font-family="Times Roman,serif" font-size="14.00">Objective Type</text>
</g>
<!-- robjective&#45;&gt;pfrontal -->
<g id="edge93" class="edge"><title>robjective&#45;&gt;pfrontal</title>
<path fill="none" stroke="black" d="M1336.61,-953.898C1311.36,-942.288 1278.71,-927.284 1253.61,-915.745"/>
<polygon fill="black" stroke="black" points="1254.93,-912.502 1244.39,-911.506 1252.01,-918.863 1254.93,-912.502"/>
</g>
<!-- rtgtcell -->
<g id="node17" class="node"><title>rtgtcell</title>
<polygon fill="blue" stroke="black" points="1358,-604 1355,-608 1334,-608 1331,-604 1268,-604 1268,-568 1358,-568 1358,-604"/>
<text text-anchor="middle" x="1313" y="-581.9" font-family="Times Roman,serif" font-size="14.00" fill="white">Target Cell</text>
</g>
<!-- rtgtcell&#45;&gt;diccoord -->
<g id="edge129" class="edge"><title>rtgtcell&#45;&gt;diccoord</title>
<path fill="none" stroke="black" d="M1341.38,-567.898C1356.54,-558.222 1375.41,-546.19 1391.74,-535.77"/>
<polygon fill="black" stroke="black" points="1393.97,-538.501 1400.51,-530.172 1390.2,-532.6 1393.97,-538.501"/>
</g>
<!-- rtgtcells -->
<g id="node18" class="node"><title>rtgtcells</title>
<polygon fill="blue" stroke="black" points="1528,-604 1525,-608 1504,-608 1501,-604 1376,-604 1376,-568 1528,-568 1528,-604"/>
<text text-anchor="middle" x="1452" y="-581.9" font-family="Times Roman,serif" font-size="14.00" fill="white">Decaying Cell Score</text>
</g>
<!-- ptgtanalyse -->
<g id="node97" class="node"><title>ptgtanalyse</title>
<polygon fill="#d9d9d9" stroke="black" points="1313,-678 1193.11,-660 1313,-642 1432.89,-660 1313,-678"/>
<polyline fill="none" stroke="black" points="1204.98,-661.782 1204.98,-658.218 "/>
<polyline fill="none" stroke="black" points="1301.13,-643.782 1324.87,-643.782 "/>
<polyline fill="none" stroke="black" points="1421.02,-658.218 1421.02,-661.782 "/>
<polyline fill="none" stroke="black" points="1324.87,-676.218 1301.13,-676.218 "/>
<text text-anchor="middle" x="1313" y="-655.9" font-family="Times Roman,serif" font-size="14.00">Alter if Greater</text>
</g>
<!-- rtgtcells&#45;&gt;ptgtanalyse -->
<g id="edge123" class="edge"><title>rtgtcells&#45;&gt;ptgtanalyse</title>
<path fill="none" stroke="black" d="M1423.67,-604.227C1403.25,-615.7 1375.54,-630.451 1352.9,-641.9"/>
<polygon fill="black" stroke="black" points="1351.23,-638.819 1343.86,-646.427 1354.37,-645.077 1351.23,-638.819"/>
</g>
<!-- xobjects -->
<g id="node20" class="node"><title>xobjects</title>
<polygon fill="red" stroke="black" points="1799,-1392 1735,-1392 1731,-1388 1731,-1356 1795,-1356 1799,-1360 1799,-1392"/>
<polyline fill="none" stroke="black" points="1795,-1388 1731,-1388 "/>
<polyline fill="none" stroke="black" points="1795,-1388 1795,-1356 "/>
<polyline fill="none" stroke="black" points="1795,-1388 1799,-1392 "/>
<text text-anchor="middle" x="1765" y="-1369.9" font-family="Times Roman,serif" font-size="14.00" fill="white">Objects</text>
</g>
<!-- pfrontalfor -->
<g id="node70" class="node"><title>pfrontalfor</title>
<polygon fill="#333333" stroke="black" points="1644,-1318 1569.82,-1300 1644,-1282 1718.18,-1300 1644,-1318"/>
<polyline fill="none" stroke="black" points="1581.48,-1302.83 1581.48,-1297.17 "/>
<polyline fill="none" stroke="black" points="1632.34,-1284.83 1655.66,-1284.83 "/>
<polyline fill="none" stroke="black" points="1706.52,-1297.17 1706.52,-1302.83 "/>
<polyline fill="none" stroke="black" points="1655.66,-1315.17 1632.34,-1315.17 "/>
<text text-anchor="middle" x="1644" y="-1295.9" font-family="Times Roman,serif" font-size="14.00" fill="white">For Each</text>
</g>
<!-- xobjects&#45;&gt;pfrontalfor -->
<g id="edge77" class="edge"><title>xobjects&#45;&gt;pfrontalfor</title>
<path fill="none" stroke="red" d="M1735.4,-1355.9C1716.76,-1344.5 1692.77,-1329.83 1674.05,-1318.38"/>
<polygon fill="red" stroke="red" points="1675.68,-1315.27 1665.33,-1313.04 1672.03,-1321.25 1675.68,-1315.27"/>
</g>
<!-- ptgtarand -->
<g id="node92" class="node"><title>ptgtarand</title>
<polygon fill="#333333" stroke="black" points="1411,-826 1294.06,-808 1411,-790 1527.94,-808 1411,-826"/>
<polyline fill="none" stroke="black" points="1305.92,-809.826 1305.92,-806.174 "/>
<polyline fill="none" stroke="black" points="1399.14,-791.826 1422.86,-791.826 "/>
<polyline fill="none" stroke="black" points="1516.08,-806.174 1516.08,-809.826 "/>
<polyline fill="none" stroke="black" points="1422.86,-824.174 1399.14,-824.174 "/>
<text text-anchor="middle" x="1411" y="-803.9" font-family="Times Roman,serif" font-size="14.00" fill="white">Select Random</text>
</g>
<!-- xcells&#45;&gt;ptgtarand -->
<g id="edge113" class="edge"><title>xcells&#45;&gt;ptgtarand</title>
<path fill="none" stroke="red" d="M1403.02,-879.787C1404.42,-867.262 1406.29,-850.385 1407.87,-836.141"/>
<polygon fill="red" stroke="red" points="1411.39,-836.204 1409.01,-825.879 1404.43,-835.431 1411.39,-836.204"/>
</g>
<!-- xweapons -->
<g id="node22" class="node"><title>xweapons</title>
<polygon fill="red" stroke="black" points="1250,-604 1174,-604 1170,-600 1170,-568 1246,-568 1250,-572 1250,-604"/>
<polyline fill="none" stroke="black" points="1246,-600 1170,-600 "/>
<polyline fill="none" stroke="black" points="1246,-600 1246,-568 "/>
<polyline fill="none" stroke="black" points="1246,-600 1250,-604 "/>
<text text-anchor="middle" x="1210" y="-581.9" font-family="Times Roman,serif" font-size="14.00" fill="white">Weapons</text>
</g>
<!-- pswsfor -->
<g id="node105" class="node"><title>pswsfor</title>
<polygon fill="#333333" stroke="black" points="1206,-530 1131.82,-512 1206,-494 1280.18,-512 1206,-530"/>
<polyline fill="none" stroke="black" points="1143.48,-514.83 1143.48,-509.17 "/>
<polyline fill="none" stroke="black" points="1194.34,-496.83 1217.66,-496.83 "/>
<polyline fill="none" stroke="black" points="1268.52,-509.17 1268.52,-514.83 "/>
<polyline fill="none" stroke="black" points="1217.66,-527.17 1194.34,-527.17 "/>
<text text-anchor="middle" x="1206" y="-507.9" font-family="Times Roman,serif" font-size="14.00" fill="white">For Each</text>
</g>
<!-- xweapons&#45;&gt;pswsfor -->
<g id="edge132" class="edge"><title>xweapons&#45;&gt;pswsfor</title>
<path fill="none" stroke="red" d="M1209.01,-567.708C1208.56,-559.312 1208.01,-549.171 1207.51,-539.856"/>
<polygon fill="red" stroke="red" points="1211,-539.623 1206.96,-529.826 1204.01,-540.001 1211,-539.623"/>
</g>
<!-- powfor -->
<g id="node123" class="node"><title>powfor</title>
<polygon fill="#333333" stroke="black" points="1340,-476 1265.82,-458 1340,-440 1414.18,-458 1340,-476"/>
<polyline fill="none" stroke="black" points="1277.48,-460.83 1277.48,-455.17 "/>
<polyline fill="none" stroke="black" points="1328.34,-442.83 1351.66,-442.83 "/>
<polyline fill="none" stroke="black" points="1402.52,-455.17 1402.52,-460.83 "/>
<polyline fill="none" stroke="black" points="1351.66,-473.17 1328.34,-473.17 "/>
<text text-anchor="middle" x="1340" y="-453.9" font-family="Times Roman,serif" font-size="14.00" fill="white">For Each</text>
</g>
<!-- xweapons&#45;&gt;powfor -->
<g id="edge159" class="edge"><title>xweapons&#45;&gt;powfor</title>
<path fill="none" stroke="red" d="M1250.04,-570.322C1278.16,-558.537 1312.4,-542.364 1322,-530 1331.63,-517.591 1336.17,-500.671 1338.29,-486.351"/>
<polygon fill="red" stroke="red" points="1341.81,-486.359 1339.47,-476.025 1334.85,-485.559 1341.81,-486.359"/>
</g>
<!-- oengine -->
<g id="node24" class="node"><title>oengine</title>
<polygon fill="black" stroke="black" points="662,-274 550,-274 550,-238 668,-238 668,-268 662,-274"/>
<polyline fill="none" stroke="black" points="662,-274 662,-268 "/>
<polyline fill="none" stroke="black" points="668,-268 662,-268 "/>
<text text-anchor="middle" x="609" y="-251.9" font-family="Times Roman,serif" font-size="14.00" fill="white">Engine Control</text>
</g>
<!-- oweap -->
<g id="node25" class="node"><title>oweap</title>
<polygon fill="black" stroke="black" points="1172,-126 1058,-126 1058,-90 1178,-90 1178,-120 1172,-126"/>
<polyline fill="none" stroke="black" points="1172,-126 1172,-120 "/>
<polyline fill="none" stroke="black" points="1178,-120 1172,-120 "/>
<text text-anchor="middle" x="1118" y="-103.9" font-family="Times Roman,serif" font-size="14.00" fill="white">Which Weapon</text>
</g>
<!-- owlvl -->
<g id="node26" class="node"><title>owlvl</title>
<polygon fill="black" stroke="black" points="1617,-36 1509,-36 1509,-1.77636e-14 1623,-3.55271e-15 1623,-30 1617,-36"/>
<polyline fill="none" stroke="black" points="1617,-36 1617,-30 "/>
<polyline fill="none" stroke="black" points="1623,-30 1617,-30 "/>
<text text-anchor="middle" x="1566" y="-13.9" font-family="Times Roman,serif" font-size="14.00" fill="white">Weapon Level</text>
</g>
<!-- ofire -->
<g id="node27" class="node"><title>ofire</title>
<polygon fill="black" stroke="black" points="1361,-36 1257,-36 1257,-1.77636e-14 1367,-3.55271e-15 1367,-30 1361,-36"/>
<polyline fill="none" stroke="black" points="1361,-36 1361,-30 "/>
<polyline fill="none" stroke="black" points="1367,-30 1361,-30 "/>
<text text-anchor="middle" x="1312" y="-13.9" font-family="Times Roman,serif" font-size="14.00" fill="white">Fire Weapon?</text>
</g>
<!-- otel -->
<g id="node28" class="node"><title>otel</title>
<polygon fill="black" stroke="black" points="1510,-990 1434,-990 1434,-954 1516,-954 1516,-984 1510,-990"/>
<polyline fill="none" stroke="black" points="1510,-990 1510,-984 "/>
<polyline fill="none" stroke="black" points="1516,-984 1510,-984 "/>
<text text-anchor="middle" x="1475" y="-967.9" font-family="Times Roman,serif" font-size="14.00" fill="white">Telepathy</text>
</g>
<!-- preflex -->
<g id="node36" class="node"><title>preflex</title>
<polygon fill="#d9d9d9" stroke="black" points="361,-1228 282.884,-1210 361,-1192 439.116,-1210 361,-1228"/>
<polyline fill="none" stroke="black" points="294.577,-1212.69 294.577,-1207.31 "/>
<polyline fill="none" stroke="black" points="349.306,-1194.69 372.694,-1194.69 "/>
<polyline fill="none" stroke="black" points="427.423,-1207.31 427.423,-1212.69 "/>
<polyline fill="none" stroke="black" points="372.694,-1225.31 349.306,-1225.31 "/>
<text text-anchor="middle" x="361" y="-1205.9" font-family="Times Roman,serif" font-size="14.00">Max Bool</text>
</g>
<!-- creflex&#45;&gt;preflex -->
<g id="edge19" class="edge"><title>creflex&#45;&gt;preflex</title>
<path fill="none" stroke="black" d="M415.142,-1288.51C435.611,-1278.64 457.455,-1263.29 446,-1246 438.524,-1234.71 426.727,-1226.96 414.275,-1221.63"/>
<polygon fill="black" stroke="black" points="415.278,-1218.27 404.686,-1218.01 412.806,-1224.81 415.278,-1218.27"/>
<text text-anchor="middle" x="466" y="-1250.9" font-family="Times Roman,serif" font-size="14.00">Edge</text>
</g>
<!-- creflex&#45;&gt;preflex -->
<g id="edge21" class="edge"><title>creflex&#45;&gt;preflex</title>
<path fill="none" stroke="black" d="M356.854,-1293.76C329.576,-1287.26 291.744,-1276.32 283,-1264 270.376,-1246.21 291.683,-1232.38 315.195,-1223.17"/>
<polygon fill="black" stroke="black" points="316.4,-1226.45 324.601,-1219.75 314.007,-1219.88 316.4,-1226.45"/>
<text text-anchor="middle" x="305.5" y="-1250.9" font-family="Times Roman,serif" font-size="14.00">Dodge</text>
</g>
<!-- creflex&#45;&gt;preflex -->
<g id="edge23" class="edge"><title>creflex&#45;&gt;preflex</title>
<path fill="none" stroke="black" d="M363.199,-1281.89C358.246,-1276.7 353.689,-1270.62 351,-1264 347.456,-1255.27 348.138,-1245.24 350.311,-1236.2"/>
<polygon fill="black" stroke="black" points="353.685,-1237.14 353.253,-1226.55 346.989,-1235.1 353.685,-1237.14"/>
<text text-anchor="middle" x="386" y="-1250.9" font-family="Times Roman,serif" font-size="14.00">Run Away</text>
</g>
<!-- creflex&#45;&gt;preflex -->
<g id="edge25" class="edge"><title>creflex&#45;&gt;preflex</title>
<path fill="none" stroke="green" stroke-width="4" d="M409.276,-1281.84C419.565,-1271.52 427.936,-1258.25 421,-1246 416.341,-1237.77 408.967,-1231.22 400.961,-1226.08"/>
<polygon fill="green" stroke="green" points="392.124,-1221.05 403.041,-1222.09 397.211,-1222.22 401.557,-1224.7 400.815,-1226 400.073,-1227.3 395.728,-1224.83 398.59,-1229.91 392.124,-1221.05 392.124,-1221.05"/>
</g>
<!-- preflex&#45;&gt;cavoidedge -->
<g id="edge27" class="edge"><title>preflex&#45;&gt;cavoidedge</title>
<path fill="none" stroke="green" stroke-width="4" d="M352.31,-1193.75C347.396,-1182.11 343.721,-1166.66 352,-1156 362.615,-1142.33 402.239,-1132.99 436.789,-1127.25"/>
<polygon fill="green" stroke="green" points="446.839,-1125.65 437.668,-1131.66 442.136,-1127.92 437.198,-1128.7 436.963,-1127.22 436.728,-1125.74 441.666,-1124.96 436.258,-1122.78 446.839,-1125.65 446.839,-1125.65"/>
<text text-anchor="middle" x="369" y="-1160.9" font-family="Times Roman,serif" font-size="14.00">Edge</text>
</g>
<!-- preflex&#45;&gt;cdodge -->
<g id="edge29" class="edge"><title>preflex&#45;&gt;cdodge</title>
<path fill="none" stroke="green" stroke-width="4" d="M321.555,-1201.06C296.173,-1194.42 266.565,-1184.69 259,-1174 253.396,-1166.08 254.642,-1156.24 258.287,-1147.14"/>
<polygon fill="green" stroke="green" points="262.769,-1138.03 262.391,-1148.99 261.907,-1143.18 259.7,-1147.66 258.354,-1147 257.008,-1146.34 259.216,-1141.85 254.316,-1145.01 262.769,-1138.03 262.769,-1138.03"/>
<text text-anchor="middle" x="281.5" y="-1160.9" font-family="Times Roman,serif" font-size="14.00">Dodge</text>
</g>
<!-- preflex&#45;&gt;crunaway -->
<g id="edge31" class="edge"><title>preflex&#45;&gt;crunaway</title>
<path fill="none" stroke="green" stroke-width="4" d="M381.155,-1196.5C400.382,-1184.21 430.55,-1166.44 459,-1156 496.888,-1142.1 508.832,-1147.72 548,-1138 550.622,-1137.35 553.3,-1136.66 556,-1135.94"/>
<polygon fill="green" stroke="green" points="565.807,-1133.25 557.352,-1140.24 561.381,-1136.02 556.559,-1137.34 556.163,-1135.9 555.766,-1134.45 560.588,-1133.13 554.973,-1131.56 565.807,-1133.25 565.807,-1133.25"/>
<text text-anchor="middle" x="494" y="-1160.9" font-family="Times Roman,serif" font-size="14.00">Run Away</text>
</g>
<!-- preflex&#45;&gt;cfrontal -->
<g id="edge33" class="edge"><title>preflex&#45;&gt;cfrontal</title>
<path fill="none" stroke="green" stroke-width="4" d="M415.176,-1204.47C577.158,-1187.94 1055.52,-1139.13 1200.73,-1124.31"/>
<polygon fill="green" stroke="green" points="1210.99,-1123.27 1201.5,-1128.76 1206.17,-1125.27 1201.2,-1125.77 1201.05,-1124.28 1200.89,-1122.79 1205.87,-1122.28 1200.59,-1119.8 1210.99,-1123.27 1210.99,-1123.27"/>
<text text-anchor="middle" x="915" y="-1160.9" font-family="Times Roman,serif" font-size="14.00">otherwise</text>
</g>
<!-- cavoidedge&#45;&gt;oengine -->
<g id="edge45" class="edge"><title>cavoidedge&#45;&gt;oengine</title>
<path fill="none" stroke="black" d="M508.863,-1101.91C519.66,-1087.71 532,-1066.91 532,-1046 532,-1046 532,-1046 532,-330 532,-308.968 547.119,-292.045 563.958,-279.72"/>
<polygon fill="black" stroke="black" points="566.006,-282.56 572.304,-274.04 562.068,-276.773 566.006,-282.56"/>
</g>
<!-- cdodge&#45;&gt;oengine -->
<g id="edge59" class="edge"><title>cdodge&#45;&gt;oengine</title>
<path fill="none" stroke="black" d="M306.073,-1113.32C338.337,-1104.17 385,-1084.31 385,-1046 385,-1046 385,-1046 385,-330 385,-296.936 474.106,-276.143 539.918,-265.294"/>
<polygon fill="black" stroke="black" points="540.534,-268.74 549.854,-263.702 539.426,-261.829 540.534,-268.74"/>
</g>
<!-- crunaway&#45;&gt;oengine -->
<g id="edge71" class="edge"><title>crunaway&#45;&gt;oengine</title>
<path fill="none" stroke="black" d="M609,-1101.75C609,-1086.78 609,-1065.01 609,-1046 609,-1046 609,-1046 609,-330 609,-314.997 609,-298.283 609,-284.541"/>
<polygon fill="black" stroke="black" points="612.5,-284.246 609,-274.247 605.5,-284.247 612.5,-284.246"/>
</g>
<!-- pfrontalmax -->
<g id="node75" class="node"><title>pfrontalmax</title>
<polygon fill="#d9d9d9" stroke="black" points="1376,-1064 1318.02,-1046 1376,-1028 1433.98,-1046 1376,-1064"/>
<polyline fill="none" stroke="black" points="1329.48,-1049.56 1329.48,-1042.44 "/>
<polyline fill="none" stroke="black" points="1364.54,-1031.56 1387.46,-1031.56 "/>
<polyline fill="none" stroke="black" points="1422.52,-1042.44 1422.52,-1049.56 "/>
<polyline fill="none" stroke="black" points="1387.46,-1060.44 1364.54,-1060.44 "/>
<text text-anchor="middle" x="1376" y="-1041.9" font-family="Times Roman,serif" font-size="14.00">Select</text>
</g>
<!-- cfrontal&#45;&gt;pfrontalmax -->
<g id="edge85" class="edge"><title>cfrontal&#45;&gt;pfrontalmax</title>
<path fill="none" stroke="black" d="M1275.2,-1102.09C1296.76,-1090.09 1324.95,-1074.4 1346.04,-1062.67"/>
<polygon fill="black" stroke="black" points="1347.85,-1065.67 1354.88,-1057.75 1344.44,-1059.55 1347.85,-1065.67"/>
</g>
<!-- cfrontal&#45;&gt;pfrontal -->
<g id="edge91" class="edge"><title>cfrontal&#45;&gt;pfrontal</title>
<path fill="none" stroke="green" stroke-width="4" d="M1240.71,-1101.83C1235.82,-1063.1 1224.36,-972.186 1218.53,-925.995"/>
<polygon fill="green" stroke="green" points="1217.24,-915.798 1222.96,-925.156 1219.36,-920.571 1219.98,-925.531 1218.5,-925.719 1217.01,-925.907 1216.38,-920.946 1214.03,-926.282 1217.24,-915.798 1217.24,-915.798"/>
</g>
<!-- pfrontalfor&#45;&gt;diecoord -->
<g id="edge79" class="edge"><title>pfrontalfor&#45;&gt;diecoord</title>
<path fill="none" stroke="black" d="M1618.11,-1288.05C1587.45,-1273.9 1535.74,-1250.03 1497.55,-1232.41"/>
<polygon fill="black" stroke="black" points="1498.7,-1229.09 1488.16,-1228.07 1495.77,-1235.44 1498.7,-1229.09"/>
</g>
<!-- pfrontalmax&#45;&gt;robjective -->
<g id="edge87" class="edge"><title>pfrontalmax&#45;&gt;robjective</title>
<path fill="none" stroke="black" d="M1376,-1027.71C1376,-1019.46 1376,-1009.54 1376,-1000.36"/>
<polygon fill="black" stroke="black" points="1379.5,-1000.08 1376,-990.082 1372.5,-1000.08 1379.5,-1000.08"/>
</g>
<!-- pfrontalmax&#45;&gt;otel -->
<g id="edge89" class="edge"><title>pfrontalmax&#45;&gt;otel</title>
<path fill="none" stroke="black" d="M1393.24,-1033.11C1406.83,-1022.95 1426.16,-1008.51 1442.61,-996.209"/>
<polygon fill="black" stroke="black" points="1444.99,-998.798 1450.91,-990.008 1440.8,-993.191 1444.99,-998.798"/>
</g>
<!-- ctgtanalyse -->
<g id="node83" class="node"><title>ctgtanalyse</title>
<polygon fill="#d9d9d9" stroke="black" points="1373,-752 1253,-752 1253,-748 1249,-748 1249,-744 1253,-744 1253,-724 1249,-724 1249,-720 1253,-720 1253,-716 1373,-716 1373,-752"/>
<polyline fill="none" stroke="black" points="1253,-748 1257,-748 1257,-744 1253,-744 "/>
<polyline fill="none" stroke="black" points="1253,-724 1257,-724 1257,-720 1253,-720 "/>
<text text-anchor="middle" x="1313" y="-729.9" font-family="Times Roman,serif" font-size="14.00">Target Analysis</text>
</g>
<!-- pfrontal&#45;&gt;ctgtanalyse -->
<g id="edge95" class="edge"><title>pfrontal&#45;&gt;ctgtanalyse</title>
<path fill="none" stroke="green" stroke-width="4" d="M1205.87,-881.249C1194.97,-858.75 1180.29,-818.325 1198,-790 1208.48,-773.245 1225.57,-761.371 1243.4,-753.011"/>
<polygon fill="green" stroke="green" points="1252.77,-748.951 1245.38,-757.057 1248.78,-752.316 1244.19,-754.305 1243.59,-752.928 1243,-751.552 1247.59,-749.564 1241.8,-748.799 1252.77,-748.951 1252.77,-748.951"/>
<text text-anchor="middle" x="1241.5" y="-803.9" font-family="Times Roman,serif" font-size="14.00">Target, close</text>
</g>
<!-- pfrontal&#45;&gt;cnavigate -->
<g id="edge97" class="edge"><title>pfrontal&#45;&gt;cnavigate</title>
<path fill="none" stroke="green" stroke-width="4" d="M1140.41,-891.603C1084.13,-885.99 1005.2,-876.438 937,-862 893.674,-852.829 845.69,-838.408 809.874,-826.776"/>
<polygon fill="green" stroke="green" points="800.108,-823.575 811.012,-822.414 805.327,-823.707 810.078,-825.264 809.611,-826.69 809.144,-828.115 804.392,-826.558 808.21,-830.966 800.108,-823.575 800.108,-823.575"/>
<text text-anchor="middle" x="972" y="-848.9" font-family="Times Roman,serif" font-size="14.00">otherwise</text>
</g>
<!-- ctgtanalyse&#45;&gt;ptgtanalyse -->
<g id="edge117" class="edge"><title>ctgtanalyse&#45;&gt;ptgtanalyse</title>
<path fill="none" stroke="black" d="M1307.08,-715.708C1306.25,-707.187 1306.04,-696.871 1306.45,-687.443"/>
<polygon fill="black" stroke="black" points="1309.96,-687.545 1307.18,-677.319 1302.97,-687.042 1309.96,-687.545"/>
</g>
<!-- ctgtanalyse&#45;&gt;ptgtanalyse -->
<g id="edge119" class="edge"><title>ctgtanalyse&#45;&gt;ptgtanalyse</title>
<path fill="none" stroke="green" stroke-width="4" d="M1318.92,-715.708C1319.75,-707.187 1319.96,-696.871 1319.55,-687.443"/>
<polygon fill="green" stroke="green" points="1318.82,-677.319 1324.02,-686.97 1320.67,-682.198 1321.03,-687.186 1319.54,-687.293 1318.04,-687.401 1317.68,-682.414 1315.05,-687.616 1318.82,-677.319 1318.82,-677.319"/>
</g>
<!-- cnavigate&#45;&gt;oengine -->
<g id="edge109" class="edge"><title>cnavigate&#45;&gt;oengine</title>
<path fill="none" stroke="black" d="M731.786,-789.903C717.15,-776.31 701,-756.266 701,-734 701,-734 701,-734 701,-330 701,-307.692 684.373,-290.977 665.255,-279.132"/>
<polygon fill="black" stroke="black" points="666.764,-275.962 656.347,-274.029 663.285,-282.037 666.764,-275.962"/>
</g>
<!-- ptgtarand&#45;&gt;ctgtanalyse -->
<g id="edge115" class="edge"><title>ptgtarand&#45;&gt;ctgtanalyse</title>
<path fill="none" stroke="black" d="M1391.17,-793.025C1377.95,-783.048 1360.29,-769.711 1345.1,-758.239"/>
<polygon fill="black" stroke="black" points="1347.05,-755.324 1336.96,-752.091 1342.83,-760.91 1347.05,-755.324"/>
</g>
<!-- ptgtarand&#45;&gt;ptgtanalyse -->
<g id="edge121" class="edge"><title>ptgtarand&#45;&gt;ptgtanalyse</title>
<path fill="none" stroke="black" d="M1359.99,-797.712C1316.14,-787.709 1257.84,-771.238 1244,-752 1234.66,-739.012 1237.12,-730.445 1244,-716 1251.13,-701.032 1264.43,-688.763 1277.47,-679.564"/>
<polygon fill="black" stroke="black" points="1279.52,-682.402 1285.93,-673.965 1275.66,-676.565 1279.52,-682.402"/>
</g>
<!-- ptgtanalyse&#45;&gt;rtgtcell -->
<g id="edge127" class="edge"><title>ptgtanalyse&#45;&gt;rtgtcell</title>
<path fill="none" stroke="black" d="M1313,-641.708C1313,-633.464 1313,-623.538 1313,-614.362"/>
<polygon fill="black" stroke="black" points="1316.5,-614.082 1313,-604.082 1309.5,-614.082 1316.5,-614.082"/>
</g>
<!-- ptgtanalyse&#45;&gt;rtgtcells -->
<g id="edge125" class="edge"><title>ptgtanalyse&#45;&gt;rtgtcells</title>
<path fill="none" stroke="black" d="M1335.27,-645.203C1353.6,-634.74 1380.06,-620.518 1403.21,-608.635"/>
<polygon fill="black" stroke="black" points="1404.9,-611.701 1412.22,-604.041 1401.72,-605.464 1404.9,-611.701"/>
</g>
<!-- ptgtanalyse&#45;&gt;cstratweap -->
<g id="edge140" class="edge"><title>ptgtanalyse&#45;&gt;cstratweap</title>
<path fill="none" stroke="green" stroke-width="4" d="M1258.31,-650.177C1226.84,-642.19 1188.27,-628.142 1161,-604 1122.27,-569.712 1121.56,-545.704 1123,-494 1123.57,-473.402 1124.88,-450.184 1126.01,-432.49"/>
<polygon fill="green" stroke="green" points="1126.69,-422.259 1130.52,-432.534 1127.85,-427.347 1127.53,-432.336 1126.03,-432.237 1124.53,-432.139 1124.86,-427.149 1121.54,-431.941 1126.69,-422.259 1126.69,-422.259"/>
</g>
<!-- pswsfor&#45;&gt;cstratweap -->
<g id="edge138" class="edge"><title>pswsfor&#45;&gt;cstratweap</title>
<path fill="none" stroke="black" d="M1194.82,-496.526C1182.44,-479.378 1162.24,-451.415 1147.29,-430.712"/>
<polygon fill="black" stroke="black" points="1149.94,-428.394 1141.24,-422.336 1144.26,-432.492 1149.94,-428.394"/>
</g>
<!-- cstratweap&#45;&gt;caiming -->
<g id="edge143" class="edge"><title>cstratweap&#45;&gt;caiming</title>
<path fill="none" stroke="green" stroke-width="4" d="M1128,-385.708C1128,-377.464 1128,-367.538 1128,-358.362"/>
<polygon fill="green" stroke="green" points="1128,-348.082 1132.5,-358.082 1129.5,-353.082 1129.5,-358.082 1128,-358.082 1126.5,-358.082 1126.5,-353.082 1123.5,-358.082 1128,-348.082 1128,-348.082"/>
</g>
<!-- caiming&#45;&gt;oengine -->
<g id="edge157" class="edge"><title>caiming&#45;&gt;oengine</title>
<path fill="none" stroke="black" d="M1095.93,-325.427C1013.33,-313.65 791.884,-282.076 678.293,-265.88"/>
<polygon fill="black" stroke="black" points="678.704,-262.403 668.31,-264.456 677.715,-269.333 678.704,-262.403"/>
</g>
<!-- caiming&#45;&gt;coppweap -->
<g id="edge161" class="edge"><title>caiming&#45;&gt;coppweap</title>
<path fill="none" stroke="green" stroke-width="4" d="M1160.1,-322.972C1208.66,-312.342 1302.63,-291.767 1373.67,-276.214"/>
<polygon fill="green" stroke="green" points="1383.53,-274.055 1374.73,-280.589 1378.97,-276.589 1374.09,-277.659 1373.77,-276.193 1373.44,-274.728 1378.33,-273.659 1372.8,-271.798 1383.53,-274.055 1383.53,-274.055"/>
</g>
<!-- poppweap -->
<g id="node132" class="node"><title>poppweap</title>
<polygon fill="#d9d9d9" stroke="black" points="1178,-200 1120.02,-182 1178,-164 1235.98,-182 1178,-200"/>
<polyline fill="none" stroke="black" points="1131.48,-185.558 1131.48,-178.442 "/>
<polyline fill="none" stroke="black" points="1166.54,-167.558 1189.46,-167.558 "/>
<polyline fill="none" stroke="black" points="1224.52,-178.442 1224.52,-185.558 "/>
<polyline fill="none" stroke="black" points="1189.46,-196.442 1166.54,-196.442 "/>
<text text-anchor="middle" x="1178" y="-177.9" font-family="Times Roman,serif" font-size="14.00">Select</text>
</g>
<!-- coppweap&#45;&gt;poppweap -->
<g id="edge175" class="edge"><title>coppweap&#45;&gt;poppweap</title>
<path fill="none" stroke="black" d="M1395.92,-237.992C1340.81,-223.833 1265.89,-204.582 1219.8,-192.739"/>
<polygon fill="black" stroke="black" points="1220.41,-189.284 1209.85,-190.185 1218.67,-196.063 1220.41,-189.284"/>
</g>
<!-- coppweap&#45;&gt;cweaplvl -->
<g id="edge181" class="edge"><title>coppweap&#45;&gt;cweaplvl</title>
<path fill="none" stroke="green" stroke-width="4" d="M1478.26,-237.852C1495.66,-212.11 1527.62,-164.81 1547.79,-134.957"/>
<polygon fill="green" stroke="green" points="1553.64,-126.296 1551.77,-137.101 1552.08,-131.279 1549.28,-135.422 1548.04,-134.582 1546.8,-133.742 1549.6,-129.599 1544.31,-132.063 1553.64,-126.296 1553.64,-126.296"/>
<text text-anchor="middle" x="1541.5" y="-177.9" font-family="Times Roman,serif" font-size="14.00">&gt;0?</text>
</g>
<!-- powfor&#45;&gt;coppweap -->
<g id="edge173" class="edge"><title>powfor&#45;&gt;coppweap</title>
<path fill="none" stroke="black" d="M1349.89,-442.149C1371.4,-407.663 1422.65,-325.497 1449.28,-282.798"/>
<polygon fill="black" stroke="black" points="1452.41,-284.408 1454.73,-274.071 1446.47,-280.703 1452.41,-284.408"/>
</g>
<!-- poppweap&#45;&gt;oweap -->
<g id="edge177" class="edge"><title>poppweap&#45;&gt;oweap</title>
<path fill="none" stroke="black" d="M1166.15,-167.38C1158.45,-157.89 1148.2,-145.253 1139.14,-134.076"/>
<polygon fill="black" stroke="black" points="1141.82,-131.826 1132.81,-126.262 1136.39,-136.234 1141.82,-131.826"/>
</g>
<!-- poppweap&#45;&gt;ofire -->
<g id="edge179" class="edge"><title>poppweap&#45;&gt;ofire</title>
<path fill="none" stroke="black" d="M1189.89,-167.446C1212.54,-139.723 1262.16,-78.9977 1290.68,-44.0875"/>
<polygon fill="black" stroke="black" points="1293.5,-46.1777 1297.11,-36.2194 1288.08,-41.7487 1293.5,-46.1777"/>
<text text-anchor="middle" x="1265.5" y="-103.9" font-family="Times Roman,serif" font-size="14.00">&gt;0?</text>
</g>
<!-- poppweap&#45;&gt;cweaplvl -->
<g id="edge183" class="edge"><title>poppweap&#45;&gt;cweaplvl</title>
<path fill="none" stroke="black" d="M1197.25,-169.834C1211.95,-161.157 1233.01,-150.004 1253,-144 1297.5,-130.638 1420.76,-119.157 1498.66,-112.945"/>
<polygon fill="black" stroke="black" points="1499.18,-116.416 1508.87,-112.141 1498.63,-109.437 1499.18,-116.416"/>
</g>
<!-- cweaplvl&#45;&gt;owlvl -->
<g id="edge195" class="edge"><title>cweaplvl&#45;&gt;owlvl</title>
<path fill="none" stroke="black" d="M1566,-89.7872C1566,-77.3443 1566,-60.6053 1566,-46.4211"/>
<polygon fill="black" stroke="black" points="1569.5,-46.1857 1566,-36.1858 1562.5,-46.1858 1569.5,-46.1857"/>
</g>
<!-- cweaplvl&#45;&gt;ofire -->
<g id="edge197" class="edge"><title>cweaplvl&#45;&gt;ofire</title>
<path fill="none" stroke="black" d="M1514.9,-89.8954C1473.83,-75.3403 1416.01,-54.8556 1372.6,-39.4734"/>
<polygon fill="black" stroke="black" points="1373.61,-36.1165 1363.01,-36.0756 1371.27,-42.7146 1373.61,-36.1165"/>
<text text-anchor="middle" x="1475.5" y="-58.9" font-family="Times Roman,serif" font-size="14.00">&gt;0?</text>
</g>
</g>
</svg>
